<svg xmlns="http://www.w3.org/2000/svg" viewBox="0 0 200 200">
<g>
<path fill="#3A75FF" stroke="none" d="
M 20 150.6
Q 28 152.4 36.05 153.8 53.3 156.85 70.8 158.15 61.15 139 59.1 113.65 7.3 145.5 11.1 72.45 -0.7 110.1 20 150.6
M 72.9 104.05
Q 65.55 109.65 59.1 113.65 61.15 139 70.8 158.15 100.6 160.4 131.25 157.75 137.55 145.05 140.6 129.6 127.7 124 111.6 112.3
L 95.2 117.9 72.9 104.05
M 165.3 153.3
Q 172.2 152.1 179.15 150.65 179.3 150.65 179.4 150.6 199.5 116.3 191.65 82.05 190.15 151.15 140.6 129.6 137.55 145.05 131.25 157.75 148.15 156.3 165.3 153.3
M 168.4 82.7
Q 171.95 82.3 172.85 78.95 173.75 75.65 171.55 71.4 169.35 67.1 165.3 64.4 161.3 61.65 157.75 62.05 155.7 62.3 154.55 63.55 153.7 64.4 153.35 65.8 152.45 69.05 154.55 73.3 154.55 73.35 154.6 73.4 156.85 77.65 160.9 80.35 164.9 83.1 168.4 82.7 Z"/>
</g>

<path stroke="#3A75FF" stroke-width="7" stroke-linejoin="round" stroke-linecap="round" fill="none" d="
M 11.1 72.45
Q 14.35 62.15 20 52.05 26.05 50.7 32.15 49.55 34.65 45.35 40.4 39.6 65.25 14.8 100.4 14.8 135.55 14.8 160.35 39.6 166.1 45.35 167.85 49.7 173.6 50.8 179.4 52.05 179.6 52.35 179.75 52.65 188.25 67.35 191.65 82.05 199.5 116.3 179.4 150.6 179.3 150.65 179.15 150.65 172.2 152.1 165.3 153.3 164.35 155.55 160.35 159.55 135.55 184.4 100.4 184.4 65.25 184.4 40.4 159.55 36.45 155.6 36.05 153.8 28 152.4 20 150.6 -0.7 110.1 11.1 72.45 Z
M 59.1 113.65
Q 58.55 106.8 58.55 99.55 58.55 67.7 69.1 44.45 50.55 46 32.15 49.55
M 69.1 44.45
Q 70 42.45 70.95 40.55 83.4 16.1 100.9 16.1 118.45 16.1 130.85 40.55 131.9 42.6 132.85 44.75 150.3 46.35 167.85 49.7
M 140.6 129.6
Q 143.3 115.7 143.3 99.55 143.3 67.9 132.85 44.75 100.75 41.75 69.1 44.45
M 131.25 157.75
Q 131.05 158.15 130.85 158.5 118.45 183 100.9 183 83.4 183 70.95 158.5 70.85 158.35 70.8 158.15 53.3 156.85 36.05 153.8
M 70.8 158.15
Q 61.15 139 59.1 113.65
M 140.6 129.6
Q 137.55 145.05 131.25 157.75 148.15 156.3 165.3 153.3
M 131.25 157.75
Q 100.6 160.4 70.8 158.15"/>
</svg>
